<?xml version="1.0" encoding="UTF-8" standalone="no"?>
<svg
   xmlns:dc="http://purl.org/dc/elements/1.1/"
   xmlns:cc="http://creativecommons.org/ns#"
   xmlns:rdf="http://www.w3.org/1999/02/22-rdf-syntax-ns#"
   xmlns:svg="http://www.w3.org/2000/svg"
   xmlns="http://www.w3.org/2000/svg"
   id="svg8"
   version="1.1"
   viewBox="0 0 138.14541 33.78508"
   height="1.3301213in"
   width="5.4387956in">
  <defs
     id="defs2" />
  <metadata
     id="metadata5">
    <rdf:RDF>
      <cc:Work
         rdf:about="">
        <dc:format>image/svg+xml</dc:format>
        <dc:type
           rdf:resource="http://purl.org/dc/dcmitype/StillImage" />
        <dc:title></dc:title>
      </cc:Work>
    </rdf:RDF>
  </metadata>
  <g
     transform="translate(-20,-131.60746)"
     id="layer1">
    <g
       id="g882">
      <g
         aria-label="policense"
         style="font-style:normal;font-weight:normal;font-size:10.58333302px;line-height:1.25;font-family:sans-serif;letter-spacing:0px;word-spacing:0px;fill:#1a1a1a;fill-opacity:1;stroke:none;stroke-width:0.26458332"
         id="text817">
        <path
           d="m 57.765801,155.39609 c 3.175,0 5.334,-2.5146 5.334,-6.7818 0,-4.2672 -2.0574,-6.8072 -5.334,-6.8072 -1.4986,0 -2.4384,0.5842 -3.1242,1.3462 v -1.0414 h -2.6416 v 18.0848 l 2.6416,-1.2192 v -5.0038 c 0.635,0.7874 1.6002,1.4224 3.1242,1.4224 z m -0.381,-2.4892 c -1.2446,0 -2.159,-0.7112 -2.7432,-1.4986 v -5.6388 c 0.5842,-0.9398 1.524,-1.4732 2.7432,-1.4732 1.9558,0 3.0734,1.8034 3.0734,4.318 0,2.7686 -1.0922,4.2926 -3.0734,4.2926 z"
           style="font-style:normal;font-variant:normal;font-weight:600;font-stretch:normal;font-size:25.39999962px;font-family:Overpass;-inkscape-font-specification:'Overpass Semi-Bold';text-align:start;text-anchor:start;fill:#1a1a1a;stroke-width:0.26458332"
           id="path827" />
        <path
           d="m 71.570701,155.39609 c 3.632199,0 5.943599,-2.5146 5.943599,-6.7818 0,-4.2672 -2.3114,-6.8072 -5.943599,-6.8072 -3.6322,0 -5.9182,2.54 -5.9182,6.8072 0,4.2672 2.286,6.7818 5.9182,6.7818 z m 0,-2.4892 c -2.0066,0 -3.2766,-1.6256 -3.2766,-4.2926 0,-2.667 1.27,-4.318 3.2766,-4.318 2.032,0 3.301999,1.651 3.301999,4.318 0,2.667 -1.269999,4.2926 -3.301999,4.2926 z"
           style="font-style:normal;font-variant:normal;font-weight:600;font-stretch:normal;font-size:25.39999962px;font-family:Overpass;-inkscape-font-specification:'Overpass Semi-Bold';text-align:start;text-anchor:start;fill:#1a1a1a;stroke-width:0.26458332"
           id="path829" />
        <path
           d="m 80.801218,155.09129 h 2.6416 v -18.3388 l -2.6416,1.2446 z"
           style="font-style:normal;font-variant:normal;font-weight:600;font-stretch:normal;font-size:25.39999962px;font-family:Overpass;-inkscape-font-specification:'Overpass Semi-Bold';text-align:start;text-anchor:start;fill:#1a1a1a;stroke-width:0.26458332"
           id="path831" />
        <path
           d="m 88.717684,140.07989 c 0.889,0 1.6002,-0.7112 1.6002,-1.6002 0,-0.889 -0.7112,-1.6002 -1.6002,-1.6002 -0.889,0 -1.6002,0.7112 -1.6002,1.6002 0,0.889 0.7112,1.6002 1.6002,1.6002 z m -1.3208,15.0114 h 2.6416 v -12.9794 h -2.6416 z"
           style="font-style:normal;font-variant:normal;font-weight:600;font-stretch:normal;font-size:25.39999962px;font-family:Overpass;-inkscape-font-specification:'Overpass Semi-Bold';text-align:start;text-anchor:start;fill:#1a1a1a;stroke-width:0.26458332"
           id="path833" />
        <path
           d="m 98.899513,155.39609 c 2.565397,0 4.267197,-1.2446 4.952997,-3.6576 l -2.5146,-0.7874 c -0.3556,1.2192 -1.2446,1.905 -2.438397,1.905 -1.8796,0 -2.9718,-1.6002 -2.9718,-4.2418 0,-2.6416 1.0922,-4.2672 3.0734,-4.2672 1.117597,0 1.904997,0.6858 2.285997,1.6764 l 2.5146,-0.8636 c -0.762,-2.3114 -2.5146,-3.3528 -4.902197,-3.3528 -3.4798,0 -5.6642,2.54 -5.6642,6.8072 0,4.2672 2.1844,6.7818 5.6642,6.7818 z"
           style="font-style:normal;font-variant:normal;font-weight:600;font-stretch:normal;font-size:25.39999962px;font-family:Overpass;-inkscape-font-specification:'Overpass Semi-Bold';text-align:start;text-anchor:start;fill:#1a1a1a;stroke-width:0.26458332"
           id="path835" />
        <path
           d="m 112.2746,155.39609 c 2.032,0 3.5052,-0.762 4.445,-1.8796 l -1.7272,-1.778 c -0.6604,0.8636 -1.6256,1.3208 -2.6924,1.3208 -1.6764,0 -3.2258,-1.3462 -3.2766,-3.4798 h 8.7376 c 0.0762,-0.4572 0.1016,-1.143 0.1016,-1.7018 0,-4.1402 -2.5146,-6.0706 -5.588,-6.0706 -3.556,0 -5.8928,2.5146 -5.8928,6.7818 0,4.2672 2.286,6.8072 5.8928,6.8072 z m -3.2512,-7.9502 c 0.127,-2.413 1.6002,-3.302 3.2512,-3.302 1.397,0 2.8956,0.889 2.9464,3.302 z"
           style="font-style:normal;font-variant:normal;font-weight:600;font-stretch:normal;font-size:25.39999962px;font-family:Overpass;-inkscape-font-specification:'Overpass Semi-Bold';text-align:start;text-anchor:start;fill:#1a1a1a;stroke-width:0.26458332"
           id="path837" />
        <path
           d="m 128.93383,155.09129 h 2.6416 v -7.747 c 0,-4.064 -1.9558,-5.5372 -4.6736,-5.5372 -1.4224,0 -2.5146,0.4826 -3.3528,1.5494 v -1.2446 h -2.6416 v 12.9794 h 2.6416 v -7.7978 c 0,-2.2352 1.2192,-2.9972 2.794,-2.9972 1.4732,0 2.5908,0.8636 2.5908,3.048 z"
           style="font-style:normal;font-variant:normal;font-weight:600;font-stretch:normal;font-size:25.39999962px;font-family:Overpass;-inkscape-font-specification:'Overpass Semi-Bold';text-align:start;text-anchor:start;fill:#1a1a1a;stroke-width:0.26458332"
           id="path839" />
        <path
           d="m 139.25773,155.39609 c 2.9464,0 4.8768,-1.2954 4.8768,-3.7846 0,-2.3368 -1.4732,-3.4544 -4.2672,-4.3942 -1.3716,-0.5334 -2.5146,-0.9652 -2.5146,-1.8288 0,-0.762 0.7112,-1.1938 1.8288,-1.1938 1.3716,0 2.1844,0.6096 2.6416,1.0922 l 1.905,-1.524 c -0.8382,-1.016 -2.3114,-1.9558 -4.5466,-1.9558 -2.5146,0 -4.5212,1.27 -4.5212,3.5814 0,2.0828 1.397,3.2512 4.1402,4.1656 1.4478,0.5588 2.6924,1.016 2.6924,2.0574 0,1.0414 -0.9652,1.397 -2.286,1.397 -1.4478,0 -2.4384,-0.8128 -2.9718,-1.3208 l -1.8796,1.6002 c 0.9144,1.2954 2.8702,2.1082 4.9022,2.1082 z"
           style="font-style:normal;font-variant:normal;font-weight:600;font-stretch:normal;font-size:25.39999962px;font-family:Overpass;-inkscape-font-specification:'Overpass Semi-Bold';text-align:start;text-anchor:start;fill:#1a1a1a;stroke-width:0.26458332"
           id="path841" />
        <path
           d="m 152.55741,155.39609 c 2.032,0 3.5052,-0.762 4.445,-1.8796 l -1.7272,-1.778 c -0.6604,0.8636 -1.6256,1.3208 -2.6924,1.3208 -1.6764,0 -3.2258,-1.3462 -3.2766,-3.4798 h 8.7376 c 0.0762,-0.4572 0.1016,-1.143 0.1016,-1.7018 0,-4.1402 -2.5146,-6.0706 -5.588,-6.0706 -3.556,0 -5.8928,2.5146 -5.8928,6.7818 0,4.2672 2.286,6.8072 5.8928,6.8072 z m -3.2512,-7.9502 c 0.127,-2.413 1.6002,-3.302 3.2512,-3.302 1.397,0 2.8956,0.889 2.9464,3.302 z"
           style="font-style:normal;font-variant:normal;font-weight:600;font-stretch:normal;font-size:25.39999962px;font-family:Overpass;-inkscape-font-specification:'Overpass Semi-Bold';text-align:start;text-anchor:start;fill:#1a1a1a;stroke-width:0.26458332"
           id="path843" />
      </g>
      <g
         id="g1618"
         transform="matrix(1.0567682,0,0,1.0567682,-6.2558349,68.43745)"
         style="fill:#1a1a1a">
        <g
           id="g2243"
           style="fill:#1a1a1a">
          <g
             id="g2360"
             style="fill:#1a1a1a">
            <path
               id="path979"
               d="m 28.272289,68.066647 c -1.46378,7.195248 -0.719035,13.252711 -0.7412,20.544209 2.71948,-0.716322 6.701278,-1.517172 6.701278,-1.517172 3.485869,-0.966706 7.636628,-1.968245 11.199848,-2.614309 -0.884249,0.713738 -2.055544,4.331969 -2.014887,-0.294937 -0.05365,-5.367895 0.369085,-10.848302 -0.777852,-16.119978 -1.252894,-2.248561 -1.957864,-3.927407 -4.235791,-5.340558 -3.32546,-1.003774 -5.883877,0.344664 -9.073565,1.36978 -0.96281,0.310087 -3.379536,1.708685 -3.379536,1.708685 0,0 -0.0857,-2.54991 0.282305,-2.934999 3.133276,-1.570082 6.327741,-2.662906 9.817617,-3.090768 6.881197,0.133688 9.5039,5.843554 9.601124,12.69501 0.196688,3.961769 0.17962,9.385291 0.229878,13.351169 -0.0117,1.440884 -6.84601,2.386514 -6.84601,2.386514 -4.149801,0.957587 -10.037197,2.212839 -14.071707,3.537497 0,0 -0.51862,-15.442436 0.615118,-22.024659 0.268229,-0.845381 1.871092,-1.414171 2.693378,-1.65548 z"
               style="fill:#1a1a1a;fill-opacity:1;stroke-width:0.14897947" />
            <path
               id="path981-7-3"
               d="m 31.454515,70.982417 c 2.79633,-0.568654 5.303897,-2.200713 8.185665,-2.40376 1.029153,0.646665 -0.451772,2.185647 -1.138255,2.26907 -1.118434,0.141037 -2.263578,0.156864 -3.33016,0.579057 -1.586869,0.523551 -3.116678,1.284098 -4.733861,1.667671 -0.802841,-0.226097 0.56617,-1.521312 0.757564,-1.875347 l 0.129604,-0.118235 0.129444,-0.11845 z"
               style="fill:#1a1a1a;fill-opacity:1;stroke-width:0.16609515" />
            <path
               id="path981-7-3-3"
               d="m 31.996246,76.698248 c 2.796329,-0.568654 5.303897,-2.200713 8.185664,-2.40376 1.029153,0.646665 -0.451772,2.185647 -1.138255,2.26907 -1.118434,0.141037 -2.263578,0.156864 -3.330159,0.579057 -1.586869,0.523551 -3.116678,1.284098 -4.733861,1.667671 -0.802841,-0.226097 0.56617,-1.521312 0.757564,-1.875347 l 0.129604,-0.118235 0.129444,-0.11845 z"
               style="fill:#1a1a1a;fill-opacity:1;stroke-width:0.16609515" />
            <path
               id="path981-7-3-5"
               d="m 32.117423,82.393592 c 2.79633,-0.568654 5.303897,-2.200713 8.185665,-2.40376 1.029153,0.646665 -0.451772,2.185647 -1.138255,2.26907 -1.118434,0.141037 -2.263578,0.156864 -3.33016,0.579057 -1.586869,0.523551 -3.116678,1.284098 -4.733861,1.667671 -0.802841,-0.226097 0.56617,-1.521312 0.757564,-1.875347 l 0.129604,-0.118235 0.129444,-0.11845 z"
               style="fill:#1a1a1a;fill-opacity:1;stroke-width:0.16609515" />
          </g>
        </g>
      </g>
    </g>
    <text
       id="text1655"
       y="80.766357"
       x="69.943451"
       style="font-style:normal;font-weight:normal;font-size:10.58333302px;line-height:1.25;font-family:sans-serif;letter-spacing:0px;word-spacing:0px;fill:#000000;fill-opacity:1;stroke:none;stroke-width:0.26458332"
       xml:space="preserve"><tspan
         style="stroke-width:0.26458332"
         y="90.130127"
         x="69.943451"
         id="tspan1653" /></text>
    <flowRoot
       style="font-style:normal;font-weight:normal;font-size:40px;line-height:1.25;font-family:sans-serif;letter-spacing:0px;word-spacing:0px;fill:#000000;fill-opacity:1;stroke:none"
       id="flowRoot1661"
       xml:space="preserve"><flowRegion
         id="flowRegion1663"><rect
           y="57.66024"
           x="-221.53545"
           height="161.03207"
           width="408.63049"
           id="rect1665" /></flowRegion><flowPara
         id="flowPara1667" /></flowRoot>  </g>
</svg>
